# xmcd
#
# Track frame offsets: 
#        150
#        12530
#        30507
#        45587
#        62762
#        72542
#        87879
#        100185
#        118600
#
# Disc length: 1723 seconds
#
# Revision: 0
# Processed by: cddbd v1.5.2PL0 Copyright (c) Steve Scherf et al.
# Submitted via: ExactAudioCopy v0.99pb4
#
DISCID=7306b909
DTITLE=David Frankel Band - Deep Blue Goodbye
DYEAR=1998
DGENRE=Country
TTITLE0=Gimme A Call
TTITLE1=Dancin' Into Dreamland
TTITLE2=Sometimes In The Night
TTITLE3=Another Useless Conversation
TTITLE4=Stronger Than The Blues
TTITLE5=True Believers
TTITLE6=Walk Away From Love
TTITLE7=Not The Time To Say Goodbye
TTITLE8=Angry Angel
EXTD=
EXTT0=
EXTT1=
EXTT2=
EXTT3=
EXTT4=
EXTT5=
EXTT6=
EXTT7=
EXTT8=
PLAYORDER=
